<?xml version="1.0" standalone="no"?>
<!DOCTYPE svg PUBLIC "-//W3C//DTD SVG 20010904//EN"
 "http://www.w3.org/TR/2001/REC-SVG-20010904/DTD/svg10.dtd">
<svg version="1.0" xmlns="http://www.w3.org/2000/svg"
 width="498.000000pt" height="498.000000pt" viewBox="0 0 498.000000 498.000000"
 preserveAspectRatio="xMidYMid meet">
<metadata>
Created by potrace 1.14, written by Peter Selinger 2001-2017
</metadata>
<g transform="translate(0.000000,498.000000) scale(0.100000,-0.100000)"
fill="#000000" stroke="none">
<path d="M2154 3485 c-15 -83 22 -177 89 -226 40 -29 42 -30 45 -10 2 12 -8
47 -22 78 -15 31 -25 58 -23 60 8 7 54 -63 68 -102 18 -55 29 -65 30 -30 3 54
-3 100 -16 125 -17 32 -79 91 -127 119 l-37 22 -7 -36z"/>
<path d="M2543 3481 c-92 -59 -139 -155 -115 -236 l9 -30 7 35 c10 42 46 108
75 134 20 18 20 17 -3 -25 -26 -45 -49 -129 -37 -129 14 0 73 49 96 81 29 39
47 120 37 172 l-7 38 -62 -40z"/>
<path d="M1938 3263 c-32 -5 -32 -5 -14 -41 42 -81 127 -121 240 -114 28 2 29
3 11 22 -10 11 -41 31 -69 46 l-51 26 39 -6 c22 -3 62 -19 89 -36 l48 -30 -23
41 c-33 59 -93 91 -176 94 -37 2 -79 1 -94 -2z"/>
<path d="M2680 3263 c-54 -20 -86 -41 -111 -76 -40 -55 -36 -62 14 -26 27 19
61 32 88 35 l44 5 -44 -20 c-23 -12 -56 -32 -73 -46 l-30 -25 34 -2 c109 -5
171 19 225 90 18 24 33 47 33 51 0 17 -143 28 -180 14z"/>
<path d="M2690 2875 c-78 -19 -145 -51 -217 -102 -35 -24 -63 -46 -63 -48 0
-2 14 -13 30 -25 l30 -21 63 55 c53 48 144 101 247 144 l25 11 -30 -1 c-16 0
-55 -6 -85 -13z"/>
<path d="M2090 2832 c0 -5 25 -19 56 -32 35 -14 81 -46 121 -84 l65 -60 -43
-39 c-112 -98 -180 -149 -235 -174 -51 -24 -71 -28 -149 -28 -78 1 -97 5 -142
28 -65 33 -93 69 -93 116 0 47 41 89 125 128 55 26 70 28 175 28 121 0 168
-12 234 -58 l31 -21 -20 24 c-32 39 -46 49 -110 80 -124 60 -282 59 -404 -3
-150 -75 -182 -213 -75 -327 63 -67 145 -102 252 -108 160 -9 287 51 434 205
l76 81 114 -112 c123 -122 215 -179 334 -210 78 -20 213 -21 289 -1 162 43
294 173 295 290 l0 40 -24 -51 c-39 -84 -127 -147 -251 -179 -159 -41 -347 7
-503 129 -31 25 -100 84 -152 132 -108 98 -225 180 -279 193 -61 15 -121 22
-121 13z"/>
<path d="M1797 2602 c-37 -40 -9 -102 46 -102 34 0 57 24 57 60 0 16 -7 36
-16 44 -21 22 -67 20 -87 -2z"/>
<path d="M3860 2232 c-30 -4 -52 -22 -27 -22 15 0 17 -14 17 -128 0 -86 -4
-132 -12 -140 -9 -9 -2 -12 35 -12 46 0 62 12 31 24 -11 4 -14 17 -12 48 2 23
8 43 13 45 6 2 26 -22 44 -52 21 -35 42 -58 58 -61 31 -8 39 1 19 21 -9 9 -30
37 -48 62 -35 52 -32 65 20 98 36 23 40 32 13 30 -10 0 -40 -20 -67 -44 l-49
-43 -5 88 c-5 88 -5 89 -30 86z"/>
<path d="M2067 2216 c-3 -8 1 -20 9 -27 12 -10 18 -9 31 3 8 9 12 21 9 27 -10
16 -43 14 -49 -3z"/>
<path d="M3305 2220 c-19 -8 -19 -9 3 -9 22 -1 22 -3 22 -135 l0 -134 43 -6
c24 -4 55 -2 69 3 68 26 92 128 42 178 -22 22 -32 25 -70 20 l-44 -5 0 49 c0
44 -2 49 -22 48 -13 0 -32 -4 -43 -9z m151 -125 c20 -31 14 -97 -12 -126 -9
-10 -30 -19 -46 -19 l-28 0 0 73 c0 43 5 78 12 85 20 20 56 14 74 -13z"/>
<path d="M4114 2219 c-10 -17 23 -46 37 -32 7 7 9 19 6 27 -7 18 -33 21 -43 5z"/>
<path d="M2448 2193 c-10 -11 -18 -29 -18 -41 0 -15 -6 -22 -20 -22 -11 0 -20
-4 -20 -10 0 -5 7 -10 15 -10 12 0 15 -14 15 -62 0 -104 17 -129 76 -114 30 8
32 27 2 23 -22 -2 -23 2 -26 82 l-3 83 26 -4 c14 -3 25 -1 25 3 0 5 -11 9 -24
9 -22 0 -25 5 -28 41 -3 40 -3 41 -20 22z"/>
<path d="M704 2142 c-27 -4 -58 -37 -49 -51 11 -18 25 -12 35 14 16 43 70 26
70 -21 0 -17 -8 -23 -34 -28 -80 -15 -114 -85 -54 -114 23 -10 33 -10 62 2 30
13 36 13 47 0 15 -18 21 -18 45 1 19 15 19 16 -1 13 -18 -3 -20 4 -23 72 -4
96 -27 123 -98 112z m56 -132 c0 -34 -4 -41 -25 -46 -66 -16 -79 49 -15 75 38
15 40 14 40 -29z"/>
<path d="M1460 2136 c-24 -8 -36 -18 -38 -33 -2 -14 2 -23 10 -23 7 0 18 10
23 23 15 33 49 34 63 2 14 -29 9 -45 -14 -45 -8 0 -33 -9 -54 -20 -35 -18 -40
-25 -40 -54 0 -28 5 -36 29 -46 24 -10 34 -9 61 5 30 15 33 15 44 -1 9 -11 19
-14 34 -10 25 8 30 26 7 26 -11 0 -15 13 -15 54 0 106 -36 146 -110 122z m70
-121 c0 -24 -6 -37 -19 -45 -40 -21 -71 -7 -71 31 0 11 60 49 78 49 7 0 12
-14 12 -35z"/>
<path d="M1682 2140 c-12 -5 -27 -21 -34 -35 -14 -30 6 -56 65 -87 29 -14 38
-24 35 -41 -5 -36 -57 -36 -85 0 -22 26 -23 27 -23 6 0 -47 57 -68 115 -41 56
25 39 82 -35 117 -36 16 -50 45 -32 63 16 16 60 1 67 -23 5 -14 10 -18 17 -11
15 15 -1 52 -22 52 -10 0 -24 2 -32 4 -7 3 -23 1 -36 -4z"/>
<path d="M1878 2139 c-54 -20 -48 -78 11 -108 52 -27 67 -47 51 -66 -20 -24
-56 -18 -79 13 l-20 27 -1 -27 c0 -35 31 -52 78 -45 40 7 72 32 72 58 0 20
-35 50 -80 69 -25 10 -30 18 -28 39 4 37 41 41 63 7 20 -31 34 -26 27 9 -3 16
-11 25 -22 25 -10 0 -24 2 -32 4 -7 3 -25 0 -40 -5z"/>
<path d="M2080 2142 c-30 -4 -52 -22 -27 -22 15 0 17 -12 17 -85 0 -69 -3 -85
-15 -85 -8 0 -15 -4 -15 -10 0 -5 25 -10 56 -10 34 0 53 4 49 10 -3 6 -13 10
-20 10 -11 0 -15 22 -17 98 l-3 97 -25 -3z"/>
<path d="M2230 2137 c-19 -10 -25 -20 -25 -47 0 -29 6 -37 45 -60 34 -20 45
-32 45 -51 0 -37 -46 -39 -74 -3 -25 32 -31 29 -24 -8 6 -31 43 -44 92 -33 38
8 53 27 49 62 -2 22 -14 34 -55 56 -29 16 -53 34 -53 40 1 42 58 49 75 10 5
-13 13 -23 17 -23 13 0 9 50 -4 54 -42 13 -66 14 -88 3z"/>
<path d="M2708 2142 c-29 -3 -39 -22 -13 -22 12 0 15 -16 15 -85 0 -69 -3 -85
-15 -85 -8 0 -15 -4 -15 -10 0 -5 23 -10 50 -10 28 0 50 5 50 10 0 6 -7 10
-15 10 -12 0 -15 15 -15 75 0 67 2 76 24 90 44 29 56 12 56 -77 0 -65 -3 -83
-17 -94 -16 -12 -11 -13 35 -14 28 0 52 5 52 10 0 6 -7 10 -15 10 -12 0 -15
15 -15 75 0 68 2 76 25 91 44 29 55 14 55 -77 0 -66 -3 -84 -17 -95 -16 -12
-11 -13 35 -14 51 0 68 12 36 24 -14 5 -15 16 -10 64 12 108 -24 154 -93 119
-27 -14 -34 -14 -61 -1 -25 13 -33 13 -57 1 -21 -11 -30 -12 -38 -3 -5 6 -22
10 -37 8z"/>
<path d="M3143 2138 c-70 -18 -99 -117 -50 -173 31 -37 93 -44 130 -15 15 12
27 26 27 31 0 6 -12 1 -26 -10 -53 -42 -102 -20 -111 48 l-6 44 67 -5 c77 -7
92 6 60 49 -25 33 -51 42 -91 31z m55 -40 c3 -27 2 -28 -42 -28 -39 0 -44 2
-39 18 11 32 26 43 52 40 20 -2 27 -9 29 -30z"/>
<path d="M909 2111 c-40 -40 -41 -109 -3 -148 22 -22 32 -25 75 -21 l49 5 0
-32 c0 -23 -6 -35 -22 -43 -19 -9 -13 -11 37 -10 33 0 52 2 43 5 -16 4 -18 19
-18 139 0 122 -6 154 -25 124 -4 -7 -12 -7 -25 0 -36 19 -80 12 -111 -19z
m100 5 c7 -8 15 -39 18 -69 5 -47 2 -58 -16 -76 -25 -25 -40 -26 -67 -7 -15
11 -19 27 -19 74 0 35 5 66 14 75 17 21 54 22 70 3z"/>
<path d="M1143 2133 c14 -4 17 -17 17 -87 0 -68 3 -86 18 -99 23 -21 58 -22
93 -3 23 12 29 12 42 -1 10 -10 23 -13 34 -9 17 7 17 8 1 17 -15 8 -18 25 -18
99 l0 90 -37 -1 c-21 -1 -30 -3 -20 -6 14 -4 17 -17 17 -83 0 -70 -2 -81 -21
-90 -11 -7 -32 -9 -45 -6 -23 6 -24 10 -24 96 l0 90 -37 -1 c-21 -1 -30 -3
-20 -6z"/>
<path d="M3566 2132 c7 -4 13 -43 15 -90 4 -69 8 -86 24 -98 25 -18 65 -18 92
1 18 13 22 13 33 0 14 -17 46 -20 55 -5 3 6 -1 10 -9 10 -19 0 -19 2 -16 108
l2 82 -38 0 c-32 -1 -36 -3 -21 -11 26 -15 24 -132 -3 -159 -25 -25 -56 -26
-70 -1 -5 11 -10 54 -10 95 l0 76 -32 0 c-18 0 -28 -4 -22 -8z"/>
<path d="M4090 2130 c-12 -8 -11 -10 8 -10 21 0 22 -4 22 -85 0 -69 -3 -85
-15 -85 -8 0 -15 -4 -15 -10 0 -5 23 -10 50 -10 28 0 50 5 50 10 0 6 -7 10
-15 10 -12 0 -15 17 -15 95 l0 95 -27 0 c-16 0 -35 -5 -43 -10z"/>
<path d="M2857 1756 c-22 -9 -22 -9 3 -16 21 -7 22 -8 5 -9 -17 -1 -17 -3 -5
-11 13 -8 12 -11 -5 -24 -19 -15 -18 -15 15 -16 l35 -2 -35 -15 c-19 -9 -30
-18 -23 -20 6 -2 26 3 43 12 18 9 34 14 37 11 3 -3 -2 -8 -11 -12 -18 -7 -12
-24 10 -24 8 0 14 10 14 25 0 18 5 25 20 25 11 0 20 4 20 9 0 5 -9 7 -20 4
-14 -4 -20 0 -20 11 0 9 8 16 18 17 14 0 14 2 -3 9 -19 8 -19 9 3 9 26 1 30
21 5 22 -10 0 -33 1 -51 2 -18 1 -43 -2 -55 -7z m68 -46 c3 -5 -3 -10 -14 -10
-12 0 -21 5 -21 10 0 6 6 10 14 10 8 0 18 -4 21 -10z"/>
<path d="M3072 1748 c-8 -18 -11 -19 -11 -5 -1 10 -9 17 -21 17 -17 0 -20 -7
-20 -50 0 -43 3 -50 20 -50 12 0 20 7 20 18 0 9 7 26 15 36 14 19 15 19 15 -7
0 -14 -10 -35 -22 -47 -12 -11 -19 -22 -16 -26 4 -3 16 4 29 17 19 19 23 20
31 5 5 -9 16 -16 25 -16 14 0 13 4 -5 23 -12 13 -22 34 -21 48 0 22 1 22 8 4
8 -19 8 -19 20 2 10 20 9 23 -16 29 -16 4 -31 11 -34 16 -3 5 -11 -2 -17 -14z
m-22 -38 c0 -16 -4 -30 -10 -30 -5 0 -10 14 -10 30 0 17 5 30 10 30 6 0 10
-13 10 -30z"/>
<path d="M1845 1750 c-4 -6 13 -10 44 -10 49 0 67 -12 36 -24 -8 -3 -15 -1
-15 4 0 6 -4 10 -10 10 -5 0 -10 -11 -10 -24 0 -14 -10 -32 -22 -40 -12 -9
-19 -19 -14 -23 4 -4 19 5 34 20 15 15 38 35 51 46 39 29 22 51 -38 51 -27 0
-53 -4 -56 -10z"/>
<path d="M2040 1733 c-24 -47 -24 -49 2 -25 27 24 58 29 58 9 0 -16 -37 -51
-64 -61 -10 -3 -16 -9 -13 -13 11 -10 65 18 82 43 21 33 20 64 -4 64 -11 0
-26 2 -33 5 -9 4 -20 -5 -28 -22z"/>
<path d="M2180 1750 c0 -5 23 -10 52 -10 50 0 51 -1 35 -17 -16 -16 -19 -16
-27 -3 -8 12 -10 11 -10 -7 0 -13 -9 -32 -21 -44 -11 -11 -18 -24 -14 -27 3
-3 21 10 40 31 19 20 38 37 43 37 16 0 24 33 10 42 -19 11 -108 10 -108 -2z"/>
<path d="M2365 1750 c3 -5 13 -10 21 -10 8 0 12 5 9 10 -3 6 -13 10 -21 10 -8
0 -12 -4 -9 -10z"/>
<path d="M2723 1700 c0 -51 1 -57 6 -27 6 36 7 37 26 23 23 -18 35 -20 35 -6
0 5 -13 16 -29 25 -16 8 -32 23 -34 32 -3 10 -5 -11 -4 -47z"/>
<path d="M2558 1741 c42 -6 42 -6 26 -29 -9 -13 -30 -32 -46 -42 -16 -10 -25
-20 -20 -24 5 -3 22 4 36 15 l27 21 25 -23 c27 -25 34 -7 8 22 -12 13 -13 22
-5 38 17 30 15 31 -41 29 l-53 -1 43 -6z"/>
<path d="M2436 1704 c-10 -14 -31 -30 -47 -36 -24 -8 -41 -28 -24 -28 20 0 75
32 89 51 30 44 13 56 -18 13z"/>
<path d="M2355 1710 c3 -5 15 -10 26 -10 11 0 17 5 14 10 -3 6 -15 10 -26 10
-11 0 -17 -4 -14 -10z"/>
</g>
</svg>
